<svg width="69" height="69" viewBox="0 0 69 69" fill="none" xmlns="http://www.w3.org/2000/svg">
<path fill-rule="evenodd" clip-rule="evenodd" d="M36.3856 5.02425H32.6141L30.4536 13.6593L28.2865 14.3292C27.0237 14.7183 25.8002 15.2252 24.6322 15.8431L22.6259 16.9049L14.989 12.3228L12.3228 14.9924L16.9049 22.6292L15.8431 24.6322C15.224 25.8001 14.716 27.0236 14.3258 28.2865L13.6593 30.4536L5.02425 32.6141V36.3856L13.6593 38.546L14.3292 40.7132C14.7155 41.9815 15.2201 43.1996 15.8431 44.3675L16.9049 46.3738L12.3228 54.0107L14.9924 56.6769L22.6292 52.0948L24.6322 53.1565C25.8001 53.7773 27.0182 54.2831 28.2865 54.6739L30.4536 55.3404L32.6141 63.9754H36.3856L38.546 55.3404L40.7132 54.6705C41.976 54.2814 43.1994 53.7745 44.3675 53.1565L46.3738 52.0948L54.0107 56.6769L56.6769 54.0073L52.0948 46.3705L53.1565 44.3675C53.7773 43.1996 54.2831 41.9815 54.6739 40.7132L55.3404 38.546L63.9754 36.3856V32.6141L55.3404 30.4536L54.6705 28.2865C54.2814 27.0237 53.7745 25.8002 53.1565 24.6322L52.0948 22.6259L56.6769 14.989L54.0073 12.3228L46.3705 16.9049L44.3675 15.8431C43.1996 15.224 41.9761 14.716 40.7132 14.3258L38.546 13.6593L36.3856 5.02425ZM46.2499 12.2927L52.3895 8.60821C53.0297 8.22423 53.7798 8.06512 54.5208 8.15615C55.2617 8.24717 55.951 8.58312 56.4792 9.11064L59.889 12.5204C60.4166 13.0486 60.7525 13.7379 60.8435 14.4789C60.9345 15.2198 60.7754 15.97 60.3915 16.6102L56.707 22.7498C57.4439 24.1343 58.0468 25.5857 58.5157 27.1041L65.4593 28.8425C66.1836 29.024 66.8265 29.4423 67.2859 30.0309C67.7453 30.6196 67.9948 31.3448 67.9948 32.0915V36.9081C67.9948 37.6548 67.7453 38.3801 67.2859 38.9688C66.8265 39.5574 66.1836 39.9757 65.4593 40.1571L58.5157 41.8955C58.0468 43.414 57.4439 44.8654 56.707 46.2499L60.3915 52.3895C60.7754 53.0297 60.9345 53.7798 60.8435 54.5208C60.7525 55.2617 60.4166 55.951 59.889 56.4792L56.4792 59.889C55.951 60.4166 55.2617 60.7525 54.5208 60.8435C53.7798 60.9345 53.0297 60.7754 52.3895 60.3915L46.2499 56.707C44.8654 57.4439 43.414 58.0468 41.8955 58.5157L40.1571 65.4593C39.9757 66.1836 39.5574 66.8265 38.9688 67.2859C38.3801 67.7453 37.6548 67.9948 36.9081 67.9948H32.0915C31.3448 67.9948 30.6196 67.7453 30.0309 67.2859C29.4423 66.8265 29.024 66.1836 28.8425 65.4593L27.1041 58.5157C25.5992 58.0507 24.1413 57.4451 22.7498 56.707L16.6102 60.3915C15.97 60.7754 15.2198 60.9345 14.4789 60.8435C13.7379 60.7525 13.0486 60.4166 12.5204 59.889L9.11064 56.4792C8.58312 55.951 8.24717 55.2617 8.15615 54.5208C8.06512 53.7798 8.22423 53.0297 8.60821 52.3895L12.2927 46.2499C11.5546 44.8583 10.949 43.4005 10.4839 41.8955L3.54042 40.1571C2.81666 39.9758 2.17415 39.5581 1.71482 38.9701C1.25548 38.3821 1.00562 37.6576 1.00485 36.9115V32.0949C1.00487 31.3482 1.25439 30.6229 1.71379 30.0343C2.17318 29.4456 2.8161 29.0273 3.54042 28.8459L10.4839 27.1075C10.9529 25.5891 11.5558 24.1376 12.2927 22.7531L8.60821 16.6135C8.22423 15.9733 8.06512 15.2232 8.15615 14.4822C8.24717 13.7413 8.58312 13.052 9.11064 12.5238L12.5204 9.11064C13.0486 8.58312 13.7379 8.24717 14.4789 8.15615C15.2198 8.06512 15.97 8.22423 16.6102 8.60821L22.7498 12.2927C24.1343 11.5558 25.5857 10.9529 27.1041 10.4839L28.8425 3.54042C29.0238 2.81666 29.4416 2.17415 30.0296 1.71482C30.6176 1.25548 31.3421 1.00562 32.0882 1.00485H36.9048C37.6515 1.00487 38.3768 1.25439 38.9654 1.71379C39.5541 2.17318 39.9723 2.8161 40.1538 3.54042L41.8922 10.4839C43.4106 10.9529 44.8621 11.5558 46.2465 12.2927H46.2499ZM34.4998 43.8784C36.9872 43.8784 39.3727 42.8903 41.1315 41.1315C42.8903 39.3727 43.8784 36.9872 43.8784 34.4998C43.8784 32.0125 42.8903 29.627 41.1315 27.8682C39.3727 26.1093 36.9872 25.1212 34.4998 25.1212C32.0125 25.1212 29.627 26.1093 27.8682 27.8682C26.1093 29.627 25.1212 32.0125 25.1212 34.4998C25.1212 36.9872 26.1093 39.3727 27.8682 41.1315C29.627 42.8903 32.0125 43.8784 34.4998 43.8784ZM34.4998 47.8978C30.9465 47.8978 27.5386 46.4863 25.026 43.9737C22.5134 41.461 21.1018 38.0532 21.1018 34.4998C21.1018 30.9465 22.5134 27.5386 25.026 25.026C27.5386 22.5134 30.9465 21.1018 34.4998 21.1018C38.0532 21.1018 41.461 22.5134 43.9737 25.026C46.4863 27.5386 47.8978 30.9465 47.8978 34.4998C47.8978 38.0532 46.4863 41.461 43.9737 43.9737C41.461 46.4863 38.0532 47.8978 34.4998 47.8978Z" fill="black" fill-opacity="0.7" stroke="black" stroke-opacity="0.7"/>
</svg>
