<svg width="60" height="70" viewBox="0 0 60 70" fill="none" xmlns="http://www.w3.org/2000/svg">
<path d="M20 6.66667V0L40 0V6.66667H20ZM30 70C25.8889 70 22.0133 69.2089 18.3733 67.6267C14.7333 66.0444 11.5533 63.8911 8.83333 61.1667C6.11333 58.4422 3.96111 55.2611 2.37667 51.6233C0.792222 47.9856 0 44.1111 0 40C0 35.8889 0.792222 32.0133 2.37667 28.3733C3.96111 24.7333 6.11333 21.5533 8.83333 18.8333C11.5533 16.1133 14.7344 13.9611 18.3767 12.3767C22.0189 10.7922 25.8933 10 30 10C33.4444 10 36.75 10.5556 39.9167 11.6667C43.0833 12.7778 46.0556 14.3889 48.8333 16.5L53.5 11.8333L58.1667 16.5L53.5 21.1667C55.6111 23.9444 57.2222 26.9167 58.3333 30.0833C59.4444 33.25 60 36.5556 60 40C60 44.1111 59.2078 47.9867 57.6233 51.6267C56.0389 55.2667 53.8867 58.4467 51.1667 61.1667C48.4467 63.8867 45.2656 66.04 41.6233 67.6267C37.9811 69.2133 34.1067 70.0044 30 70ZM30 63.3333C36.4444 63.3333 41.9444 61.0556 46.5 56.5C51.0556 51.9444 53.3333 46.4444 53.3333 40C53.3333 33.5556 51.0556 28.0556 46.5 23.5C41.9444 18.9444 36.4444 16.6667 30 16.6667C23.5556 16.6667 18.0556 18.9444 13.5 23.5C8.94444 28.0556 6.66667 33.5556 6.66667 40C6.66667 46.4444 8.94444 51.9444 13.5 56.5C18.0556 61.0556 23.5556 63.3333 30 63.3333ZM23.3333 53.3333L43.3333 40L23.3333 26.6667V53.3333Z" fill="black" fill-opacity="0.7"/>
</svg>
