<svg width="26" height="26" viewBox="0 0 26 26" fill="none" xmlns="http://www.w3.org/2000/svg">
<path fill-rule="evenodd" clip-rule="evenodd" d="M4.3333 0C3.18404 0 2.08185 0.456543 1.26919 1.26919C0.456543 2.08185 0 3.18404 0 4.3333L0 21.6665C0 22.8158 0.456543 23.918 1.26919 24.7306C2.08185 25.5433 3.18404 25.9998 4.3333 25.9998H21.6665C22.8158 25.9998 23.918 25.5433 24.7306 24.7306C25.5433 23.918 25.9998 22.8158 25.9998 21.6665V4.3333C25.9998 3.18404 25.5433 2.08185 24.7306 1.26919C23.918 0.456543 22.8158 0 21.6665 0L4.3333 0ZM10.111 7.22217C10.111 6.83908 10.2632 6.47168 10.5341 6.2008C10.805 5.92992 11.1724 5.77773 11.5555 5.77773H20.2221C20.6052 5.77773 20.9726 5.92992 21.2434 6.2008C21.5143 6.47168 21.6665 6.83908 21.6665 7.22217C21.6665 7.60526 21.5143 7.97265 21.2434 8.24354C20.9726 8.51442 20.6052 8.6666 20.2221 8.6666H11.5555C11.1724 8.6666 10.805 8.51442 10.5341 8.24354C10.2632 7.97265 10.111 7.60526 10.111 7.22217ZM10.111 12.9999C10.111 12.6168 10.2632 12.2494 10.5341 11.9785C10.805 11.7077 11.1724 11.5555 11.5555 11.5555H20.2221C20.6052 11.5555 20.9726 11.7077 21.2434 11.9785C21.5143 12.2494 21.6665 12.6168 21.6665 12.9999C21.6665 13.383 21.5143 13.7504 21.2434 14.0213C20.9726 14.2922 20.6052 14.4443 20.2221 14.4443H11.5555C11.1724 14.4443 10.805 14.2922 10.5341 14.0213C10.2632 13.7504 10.111 13.383 10.111 12.9999ZM10.111 18.7776C10.111 18.3945 10.2632 18.0272 10.5341 17.7563C10.805 17.4854 11.1724 17.3332 11.5555 17.3332H20.2221C20.6052 17.3332 20.9726 17.4854 21.2434 17.7563C21.5143 18.0272 21.6665 18.3945 21.6665 18.7776C21.6665 19.1607 21.5143 19.5281 21.2434 19.799C20.9726 20.0699 20.6052 20.2221 20.2221 20.2221H11.5555C11.1724 20.2221 10.805 20.0699 10.5341 19.799C10.2632 19.5281 10.111 19.1607 10.111 18.7776ZM5.77773 5.77773C5.39465 5.77773 5.02725 5.92992 4.75637 6.2008C4.48548 6.47168 4.3333 6.83908 4.3333 7.22217C4.3333 7.60526 4.48548 7.97265 4.75637 8.24354C5.02725 8.51442 5.39465 8.6666 5.77773 8.6666C6.16082 8.6666 6.52966 8.51442 6.80055 8.24354C7.07143 7.97265 7.22361 7.60526 7.22361 7.22217C7.22361 6.83908 7.07143 6.47168 6.80055 6.2008C6.52966 5.92992 6.16082 5.77773 5.77773 5.77773ZM4.3333 12.9999C4.3333 12.6168 4.48548 12.2494 4.75637 11.9785C5.02725 11.7077 5.39465 11.5555 5.77773 11.5555C6.16082 11.5555 6.52966 11.7077 6.80055 11.9785C7.07143 12.2494 7.22361 12.6168 7.22361 12.9999C7.22361 13.383 7.07143 13.7504 6.80055 14.0213C6.52966 14.2922 6.16227 14.4443 5.77918 14.4443C5.39609 14.4443 5.02725 14.2922 4.75637 14.0213C4.48548 13.7504 4.3333 13.383 4.3333 12.9999ZM5.77773 17.3332C5.39465 17.3332 5.02725 17.4854 4.75637 17.7563C4.48548 18.0272 4.3333 18.3945 4.3333 18.7776C4.3333 19.1607 4.48548 19.5281 4.75637 19.799C5.02725 20.0699 5.39465 20.2221 5.77773 20.2221C6.16082 20.2221 6.52966 20.0699 6.80055 19.799C7.07143 19.5281 7.22361 19.1607 7.22361 18.7776C7.22361 18.3945 7.07143 18.0272 6.80055 17.7563C6.52966 17.4854 6.16082 17.3332 5.77773 17.3332Z" fill="white"/>
</svg>
