<svg width="80" height="80" viewBox="0 0 80 80" fill="none" xmlns="http://www.w3.org/2000/svg">
<path fill-rule="evenodd" clip-rule="evenodd" d="M13.3333 0C9.79711 0 6.40573 1.40476 3.90524 3.90524C1.40476 6.40573 0 9.79711 0 13.3333L0 66.6667C0 70.2029 1.40476 73.5943 3.90524 76.0948C6.40573 78.5952 9.79711 80 13.3333 80H66.6667C70.2029 80 73.5943 78.5952 76.0948 76.0948C78.5952 73.5943 80 70.2029 80 66.6667V13.3333C80 9.79711 78.5952 6.40573 76.0948 3.90524C73.5943 1.40476 70.2029 0 66.6667 0L13.3333 0ZM31.1111 22.2222C31.1111 21.0435 31.5794 19.913 32.4129 19.0795C33.2464 18.246 34.3768 17.7778 35.5556 17.7778H62.2222C63.401 17.7778 64.5314 18.246 65.3649 19.0795C66.1984 19.913 66.6667 21.0435 66.6667 22.2222C66.6667 23.401 66.1984 24.5314 65.3649 25.3649C64.5314 26.1984 63.401 26.6667 62.2222 26.6667H35.5556C34.3768 26.6667 33.2464 26.1984 32.4129 25.3649C31.5794 24.5314 31.1111 23.401 31.1111 22.2222ZM31.1111 40C31.1111 38.8213 31.5794 37.6908 32.4129 36.8573C33.2464 36.0238 34.3768 35.5556 35.5556 35.5556H62.2222C63.401 35.5556 64.5314 36.0238 65.3649 36.8573C66.1984 37.6908 66.6667 38.8213 66.6667 40C66.6667 41.1787 66.1984 42.3092 65.3649 43.1427C64.5314 43.9762 63.401 44.4444 62.2222 44.4444H35.5556C34.3768 44.4444 33.2464 43.9762 32.4129 43.1427C31.5794 42.3092 31.1111 41.1787 31.1111 40ZM31.1111 57.7778C31.1111 56.599 31.5794 55.4686 32.4129 54.6351C33.2464 53.8016 34.3768 53.3333 35.5556 53.3333H62.2222C63.401 53.3333 64.5314 53.8016 65.3649 54.6351C66.1984 55.4686 66.6667 56.599 66.6667 57.7778C66.6667 58.9565 66.1984 60.087 65.3649 60.9205C64.5314 61.754 63.401 62.2222 62.2222 62.2222H35.5556C34.3768 62.2222 33.2464 61.754 32.4129 60.9205C31.5794 60.087 31.1111 58.9565 31.1111 57.7778ZM17.7778 17.7778C16.599 17.7778 15.4686 18.246 14.6351 19.0795C13.8016 19.913 13.3333 21.0435 13.3333 22.2222C13.3333 23.401 13.8016 24.5314 14.6351 25.3649C15.4686 26.1984 16.599 26.6667 17.7778 26.6667C18.9565 26.6667 20.0914 26.1984 20.9249 25.3649C21.7584 24.5314 22.2267 23.401 22.2267 22.2222C22.2267 21.0435 21.7584 19.913 20.9249 19.0795C20.0914 18.246 18.9565 17.7778 17.7778 17.7778ZM13.3333 40C13.3333 38.8213 13.8016 37.6908 14.6351 36.8573C15.4686 36.0238 16.599 35.5556 17.7778 35.5556C18.9565 35.5556 20.0914 36.0238 20.9249 36.8573C21.7584 37.6908 22.2267 38.8213 22.2267 40C22.2267 41.1787 21.7584 42.3092 20.9249 43.1427C20.0914 43.9762 18.961 44.4444 17.7822 44.4444C16.6035 44.4444 15.4686 43.9762 14.6351 43.1427C13.8016 42.3092 13.3333 41.1787 13.3333 40ZM17.7778 53.3333C16.599 53.3333 15.4686 53.8016 14.6351 54.6351C13.8016 55.4686 13.3333 56.599 13.3333 57.7778C13.3333 58.9565 13.8016 60.087 14.6351 60.9205C15.4686 61.754 16.599 62.2222 17.7778 62.2222C18.9565 62.2222 20.0914 61.754 20.9249 60.9205C21.7584 60.087 22.2267 58.9565 22.2267 57.7778C22.2267 56.599 21.7584 55.4686 20.9249 54.6351C20.0914 53.8016 18.9565 53.3333 17.7778 53.3333Z" fill="black"/>
</svg>
