<svg width="67" height="67" viewBox="0 0 67 67" fill="none" xmlns="http://www.w3.org/2000/svg">
<path d="M13.3999 30.1499C13.3999 29.2614 13.7529 28.4093 14.3811 27.7811C15.0094 27.1528 15.8614 26.7999 16.7499 26.7999C17.6384 26.7999 18.4905 27.1528 19.1187 27.7811C19.747 28.4093 20.0999 29.2614 20.0999 30.1499C20.0999 31.0383 19.747 31.8904 19.1187 32.5186C18.4905 33.1469 17.6384 33.4998 16.7499 33.4998C15.8614 33.4998 15.0094 33.1469 14.3811 32.5186C13.7529 31.8904 13.3999 31.0383 13.3999 30.1499ZM16.7499 40.1998C15.8614 40.1998 15.0094 40.5527 14.3811 41.181C13.7529 41.8092 13.3999 42.6613 13.3999 43.5498C13.3999 44.4383 13.7529 45.2903 14.3811 45.9186C15.0094 46.5468 15.8614 46.8998 16.7499 46.8998C17.6384 46.8998 18.4905 46.5468 19.1187 45.9186C19.747 45.2903 20.0999 44.4383 20.0999 43.5498C20.0999 42.6613 19.747 41.8092 19.1187 41.181C18.4905 40.5527 17.6384 40.1998 16.7499 40.1998ZM26.7999 30.1499C26.7999 29.2614 27.1528 28.4093 27.7811 27.7811C28.4093 27.1528 29.2614 26.7999 30.1499 26.7999C31.0383 26.7999 31.8904 27.1528 32.5186 27.7811C33.1469 28.4093 33.4998 29.2614 33.4998 30.1499C33.4998 31.0383 33.1469 31.8904 32.5186 32.5186C31.8904 33.1469 31.0383 33.4998 30.1499 33.4998C29.2614 33.4998 28.4093 33.1469 27.7811 32.5186C27.1528 31.8904 26.7999 31.0383 26.7999 30.1499ZM30.1499 40.1998C29.2614 40.1998 28.4093 40.5527 27.7811 41.181C27.1528 41.8092 26.7999 42.6613 26.7999 43.5498C26.7999 44.4383 27.1528 45.2903 27.7811 45.9186C28.4093 46.5468 29.2614 46.8998 30.1499 46.8998C31.0383 46.8998 31.8904 46.5468 32.5186 45.9186C33.1469 45.2903 33.4998 44.4383 33.4998 43.5498C33.4998 42.6613 33.1469 41.8092 32.5186 41.181C31.8904 40.5527 31.0383 40.1998 30.1499 40.1998ZM40.1998 30.1499C40.1998 29.2614 40.5527 28.4093 41.181 27.7811C41.8092 27.1528 42.6613 26.7999 43.5498 26.7999C44.4383 26.7999 45.2903 27.1528 45.9186 27.7811C46.5468 28.4093 46.8998 29.2614 46.8998 30.1499C46.8998 31.0383 46.5468 31.8904 45.9186 32.5186C45.2903 33.1469 44.4383 33.4998 43.5498 33.4998C42.6613 33.4998 41.8092 33.1469 41.181 32.5186C40.5527 31.8904 40.1998 31.0383 40.1998 30.1499ZM0 16.7499C0 12.3076 1.76472 8.04716 4.90594 4.90594C8.04716 1.76472 12.3076 0 16.7499 0L50.2498 0C54.6921 0 58.9525 1.76472 62.0937 4.90594C65.235 8.04716 66.9997 12.3076 66.9997 16.7499V50.2498C66.9997 54.6921 65.235 58.9525 62.0937 62.0937C58.9525 65.235 54.6921 66.9997 50.2498 66.9997H16.7499C12.3076 66.9997 8.04716 65.235 4.90594 62.0937C1.76472 58.9525 0 54.6921 0 50.2498L0 16.7499ZM16.7499 6.69997C14.6707 6.69888 12.6424 7.34268 10.9445 8.54265C9.2465 9.74261 7.96252 11.4397 7.26946 13.3999H59.7302C59.0371 11.4397 57.7532 9.74261 56.0552 8.54265C54.3573 7.34268 52.3289 6.69888 50.2498 6.69997H16.7499ZM60.2997 20.0999H6.69997V50.2498C6.69997 52.9152 7.7588 55.4714 9.64353 57.3561C11.5283 59.2409 14.0845 60.2997 16.7499 60.2997H50.2498C52.9152 60.2997 55.4714 59.2409 57.3561 57.3561C59.2409 55.4714 60.2997 52.9152 60.2997 50.2498V20.0999Z" fill="black" fill-opacity="0.7"/>
</svg>
