<svg width="67" height="67" viewBox="0 0 67 67" fill="none" xmlns="http://www.w3.org/2000/svg">
<path d="M33.4999 0C52.0018 0 66.9997 14.9979 66.9997 33.4998C66.9997 52.0018 52.0018 66.9997 33.4999 66.9997C27.3968 67.0092 21.4082 65.3428 16.1871 62.1824L6.03 65.1706C5.44682 65.3422 4.8282 65.3534 4.23915 65.2033C3.65011 65.0531 3.1124 64.747 2.68256 64.3171C2.25272 63.8873 1.94662 63.3496 1.79644 62.7605C1.64626 62.1715 1.65755 61.5529 1.82912 60.9697L4.8173 50.8125C1.65845 45.5908 -0.00774663 39.6027 2.70774e-05 33.4998C2.70774e-05 14.9979 14.9979 0 33.4999 0ZM33.4999 6.69997C28.7014 6.6991 23.9908 7.98655 19.8598 10.4279C15.7289 12.8692 12.3292 16.3749 10.0157 20.5788C7.70221 24.7826 6.55985 29.5306 6.70789 34.3267C6.85594 39.1228 8.28897 43.7913 10.8573 47.8445C11.6178 49.0404 11.8791 50.5479 11.4503 51.9984L9.97293 57.0268L15.0013 55.5494C16.4518 55.1206 17.9593 55.3819 19.1552 56.1424C22.6671 58.3661 26.6481 59.7424 30.7835 60.1625C34.9189 60.5826 39.0954 60.035 42.9827 58.563C46.87 57.091 50.3617 54.735 53.1816 51.6811C56.0015 48.6273 58.0725 44.9594 59.2307 40.9673C60.3889 36.9752 60.6026 32.7685 59.855 28.6796C59.1074 24.5907 57.4189 20.7317 54.923 17.4078C52.4271 14.0838 49.1922 11.386 45.4741 9.52763C41.756 7.66922 37.6566 6.70116 33.4999 6.69997ZM21.7749 28.4749C23.1076 28.4749 24.3858 29.0043 25.3281 29.9466C26.2705 30.889 26.7999 32.1671 26.7999 33.4998C26.7999 34.8325 26.2705 36.1107 25.3281 37.053C24.3858 37.9954 23.1076 38.5248 21.7749 38.5248C20.4422 38.5248 19.1641 37.9954 18.2217 37.053C17.2794 36.1107 16.7499 34.8325 16.7499 33.4998C16.7499 32.1671 17.2794 30.889 18.2217 29.9466C19.1641 29.0043 20.4422 28.4749 21.7749 28.4749ZM45.2248 28.4749C46.5575 28.4749 47.8356 29.0043 48.778 29.9466C49.7204 30.889 50.2498 32.1671 50.2498 33.4998C50.2498 34.8325 49.7204 36.1107 48.778 37.053C47.8356 37.9954 46.5575 38.5248 45.2248 38.5248C43.8921 38.5248 42.614 37.9954 41.6716 37.053C40.7292 36.1107 40.1998 34.8325 40.1998 33.4998C40.1998 32.1671 40.7292 30.889 41.6716 29.9466C42.614 29.0043 43.8921 28.4749 45.2248 28.4749Z" fill="black" fill-opacity="0.7"/>
</svg>
