<svg width="67" height="67" viewBox="0 0 67 67" fill="none" xmlns="http://www.w3.org/2000/svg">
<path d="M35.8678 0.980657L66.0124 31.1252C68.1225 33.2353 66.6287 36.8426 63.6444 36.8426H60.295V56.939C60.295 59.6039 59.2363 62.1597 57.3519 64.0441C55.4675 65.9285 52.9117 66.9872 50.2468 66.9872H46.8974V43.5414C46.8975 40.9784 45.9183 38.5123 44.16 36.6475C42.4017 34.7827 39.9973 33.6603 37.4387 33.51L36.8492 33.4932H30.1504C27.4855 33.4932 24.9297 34.5519 23.0453 36.4363C21.1609 38.3207 20.1022 40.8765 20.1022 43.5414V66.9872H16.7528C14.0879 66.9872 11.5321 65.9285 9.64769 64.0441C7.76329 62.1597 6.70464 59.6039 6.70464 56.939V36.8426H3.35525C0.374288 36.8426 -1.12289 33.2353 0.987227 31.1252L31.1318 0.980657C31.7599 0.352742 32.6117 0 33.4998 0C34.3879 0 35.2397 0.352742 35.8678 0.980657ZM36.8492 40.192C37.7375 40.192 38.5894 40.5449 39.2176 41.173C39.8457 41.8012 40.1986 42.6531 40.1986 43.5414V66.9872H26.801V43.5414C26.8011 42.721 27.1023 41.9292 27.6475 41.3162C28.1926 40.7031 28.9438 40.3115 29.7585 40.2155L30.1504 40.192H36.8492Z" fill="black"/>
</svg>
