<svg width="33" height="33" viewBox="0 0 33 33" fill="none" xmlns="http://www.w3.org/2000/svg">
<path d="M4.83333 16.5H1.5L16.5 1.5L31.5 16.5H28.1667M4.83333 16.5V28.1667C4.83333 29.0507 5.18452 29.8986 5.80964 30.5237C6.43477 31.1488 7.28261 31.5 8.16667 31.5H24.8333C25.7174 31.5 26.5652 31.1488 27.1904 30.5237C27.8155 29.8986 28.1667 29.0507 28.1667 28.1667V16.5" stroke="black" stroke-opacity="0.7" stroke-width="3" stroke-linecap="round" stroke-linejoin="round"/>
<path d="M11 28.5V21C11 20.337 11.3863 19.7011 12.0739 19.2322C12.7616 18.7634 13.6942 18.5 14.6667 18.5H18.3333C19.3058 18.5 20.2384 18.7634 20.9261 19.2322C21.6137 19.7011 22 20.337 22 21V28.5" stroke="black" stroke-opacity="0.7" stroke-width="3" stroke-linecap="square" stroke-linejoin="round"/>
</svg>
